<svg width="11px" height="18px" viewBox="0 0 11 18" version="1.1" xmlns="http://www.w3.org/2000/svg" xmlns:xlink="http://www.w3.org/1999/xlink">
    <!-- Generator: Sketch 44.1 (41455) - http://www.bohemiancoding.com/sketch -->
    <desc>Created with Sketch.</desc>
    <defs>
        <polygon id="path-1" points="0 17.0877503 0 0.208225642 10.9954323 0.208225642 10.9954323 17.0877503"></polygon>
    </defs>
    <g id="UI" stroke="none" stroke-width="1" fill="none" fill-rule="evenodd">
        <g id="Artboard-4" transform="translate(-7.000000, -4.000000)">
            <g id="Group-5-Copy" transform="translate(7.000000, 4.000000)">
                <mask id="mask-2" fill="white">
                    <use xlink:href="#path-1"></use>
                </mask>
                <g id="Clip-4"></g>
                <path d="M3.94513697,7.4424873 L5.71526827,0.992419816 C5.71526827,0.992419816 5.88647649,0.378862474 5.37873023,0.23337223 C4.93491151,0.106251966 4.70491935,0.497165147 4.65421821,0.601506635 C4.65078915,0.610324225 3.13097944,3.69746065 0.0947890983,9.8629159 C-0.00955238976,10.0987864 -0.276284504,10.8909 1.0279841,10.8306465 L6.68593803,10.5675883 L4.62703064,16.3791153 C4.62703064,16.3761761 4.52121955,16.7509237 4.91580673,17.005899 C5.3118635,17.2572004 5.71526827,16.8501216 5.72041187,16.844978 L10.784648,8.23239645 C11.4077578,7.17428559 10.4745628,7.13019763 10.2313442,7.13828042 L3.94513697,7.4424873 Z" id="Fill-3" fill="#8E8E93" mask="url(#mask-2)"></path>
            </g>
        </g>
    </g>
</svg>