<svg width="18px" height="15px" viewBox="0 0 18 15" version="1.1" xmlns="http://www.w3.org/2000/svg" xmlns:xlink="http://www.w3.org/1999/xlink">
    <!-- Generator: Sketch 44.1 (41455) - http://www.bohemiancoding.com/sketch -->
    <desc>Created with Sketch.</desc>
    <defs></defs>
    <g id="UI" stroke="none" stroke-width="1" fill="none" fill-rule="evenodd">
        <g id="Artboard" transform="translate(-4.000000, -5.000000)" stroke="#8E8E93" stroke-width="1.14">
            <path d="M18.0588929,6 L20.8900003,7.92269929 C19.233689,10.1840558 18.3790626,12.6227242 18.3261212,15.2403852 L18.3261212,18.8714969 L13.4118094,18.8714969 L13.4118094,15.7740015 C13.4118094,13.9580255 13.8437444,12.1605369 14.7076146,10.3798552 C15.5706444,8.60001381 16.687457,7.13950185 18.0588929,6 Z M9.6470835,6 L12.4773506,7.92269929 C10.8218797,10.1840558 9.96725327,12.6227242 9.91431181,15.2403852 L9.91431181,18.8714969 L5,18.8714969 L5,15.7740015 C5,13.9580255 5.43193507,12.1605369 6.29496486,10.3798552 C7.15883499,8.60001381 8.27564765,7.13950185 9.6470835,6 Z" id="Fill-1-Copy"></path>
        </g>
    </g>
</svg>