<svg width="19px" height="19px" viewBox="0 0 19 19" version="1.1" xmlns="http://www.w3.org/2000/svg" xmlns:xlink="http://www.w3.org/1999/xlink">
    <g id="Page-1" stroke="none" stroke-width="1" fill="none" fill-rule="evenodd">
        <g id="v" fill="#8E8E93">
            <path d="M19,17.4586742 L17.4586742,19 L11.5664806,13.1063537 C12.1548284,12.673446 12.673446,12.1548284 13.1063537,11.5664806 L19,17.4586742 Z M7.26355226,1.45271045 C4.05451487,1.45271045 1.45271045,4.05451487 1.45271045,7.26355226 C1.45271045,10.4725896 4.05451487,13.0743941 7.26355226,13.0743941 C10.4725896,13.0743941 13.0743941,10.4725896 13.0743941,7.26355226 C13.0743941,4.05451487 10.4725896,1.45271045 7.26355226,1.45271045 L7.26355226,1.45271045 Z M11.5664806,13.1063537 C10.3607309,13.9954125 8.87606086,14.5271045 7.26355226,14.5271045 C3.2526187,14.5271045 0,11.2759385 0,7.26355226 C0,3.2526187 3.2526187,0 7.26355226,0 C11.2759385,0 14.5271045,3.2526187 14.5271045,7.26355226 C14.5271045,8.87606086 13.9954125,10.3607309 13.1063537,11.5664806 L11.5664806,13.1063537 Z" id="Search-Icon-Copy"></path>
        </g>
    </g>
</svg>