<svg width="20px" height="15px" viewBox="0 0 20 15" version="1.1" xmlns="http://www.w3.org/2000/svg" xmlns:xlink="http://www.w3.org/1999/xlink">
    <!-- Generator: Sketch 44.1 (41455) - http://www.bohemiancoding.com/sketch -->
    <desc>Created with Sketch.</desc>
    <defs></defs>
    <g id="UI" stroke="none" stroke-width="1" fill="none" fill-rule="evenodd">
        <g id="Artboard-2" transform="translate(-3.000000, -5.000000)" fill="#8E8E93">
            <g id="Page-1-Copy" transform="translate(3.000000, 5.000000)">
                <path d="M0,14.2758621 L4.11172414,14.2758621 L4.11172414,5.14689655 L0,5.14689655 L0,14.2758621 Z M1.03448276,13.2406897 L3.07724138,13.2406897 L3.07724138,6.15517241 L1.03448276,6.15517241 L1.03448276,13.2406897 Z" id="Fill-1"></path>
                <path d="M5.12068966,14.2758621 L9.23241379,14.2758621 L9.23241379,-3.55271368e-15 L5.12068966,-3.55271368e-15 L5.12068966,14.2758621 Z M6.15517241,13.2406897 L8.19793103,13.2406897 L8.19793103,1.0337931 L6.15517241,1.0337931 L6.15517241,13.2406897 Z" id="Fill-2"></path>
                <path d="M10.2675862,14.2758621 L14.3793103,14.2758621 L14.3793103,4.11172414 L10.2675862,4.11172414 L10.2675862,14.2758621 Z M11.3013793,13.2675862 L13.3448276,13.2675862 L13.3448276,5.14689655 L11.3013793,5.14689655 L11.3013793,13.2675862 Z" id="Fill-3"></path>
                <path d="M15.3882759,14.2758621 L19.5,14.2758621 L19.5,2.06896552 L15.3882759,2.06896552 L15.3882759,14.2758621 Z M16.422069,13.2413793 L18.4655172,13.2413793 L18.4655172,3.07793103 L16.422069,3.07793103 L16.422069,13.2413793 Z" id="Fill-4"></path>
            </g>
        </g>
    </g>
</svg>