<?xml version="1.0" encoding="UTF-8"?>
<svg width="118px" height="34px" viewBox="0 0 118 34" version="1.1" xmlns="http://www.w3.org/2000/svg" xmlns:xlink="http://www.w3.org/1999/xlink">
    <!-- Generator: Sketch 44.1 (41455) - http://www.bohemiancoding.com/sketch -->
    <title>Sided Logo / Black Logotype Copy</title>
    <desc>Created with Sketch.</desc>
    <defs></defs>
    <g stroke="none" stroke-width="1" fill="none" fill-rule="evenodd">
        <g transform="translate(0.000000, -1.000000)" fill="#FBFBFB">
            <g transform="translate(0.000000, 1.458333)">
                <path d="M113.312979,28.2660694 L113.826586,28.2660694 C114.352129,28.2660694 114.580285,28.0623117 114.580285,27.6098549 C114.580285,27.168549 114.363383,26.9759423 113.88388,26.9759423 L113.312979,26.9759423 L113.312979,28.2660694 Z M114.066337,26.308577 C114.546181,26.308577 114.831973,26.3650074 115.082979,26.5119967 C115.471083,26.7269052 115.676389,27.089141 115.676389,27.5304469 C115.676389,28.0058814 115.425383,28.3677792 114.957476,28.5826878 C115.448574,28.7864454 115.585331,29.0692731 115.608181,29.9971644 C115.631031,30.3026319 115.665135,30.5175404 115.722429,30.6533788 L114.671684,30.6533788 C114.61473,30.551331 114.59188,30.3931908 114.569031,30.0877233 C114.523672,29.1371923 114.374979,28.9449235 113.735528,28.8996441 L113.312979,28.8996441 L113.312979,30.6533788 L112.204938,30.6533788 L112.204938,26.308577 L114.066337,26.308577 Z M110.788938,28.5262574 C110.788938,30.2458636 112.182429,31.6603402 113.872626,31.6603402 C115.574077,31.6603402 116.955632,30.2573524 116.955632,28.5262574 C116.955632,26.8063133 115.574077,25.3806857 113.918325,25.3806857 C112.170834,25.3806857 110.788938,26.7610338 110.788938,28.5262574 L110.788938,28.5262574 Z M117.823921,28.5262574 C117.823921,30.6875074 116.05358,32.452393 113.88388,32.452393 C111.702586,32.452393 109.921331,30.6875074 109.921331,28.5262574 C109.921331,26.3197279 111.691331,24.5886329 113.92958,24.5886329 C116.065175,24.5886329 117.823921,26.3764962 117.823921,28.5262574 L117.823921,28.5262574 Z" id="Fill-1"></path>
                <path d="M21.3655029,31.7605971 L28.5256474,31.7605971 L28.5256474,10.1508003 L21.3655029,10.1508003 L21.3655029,31.7605971 Z M28.7609653,3.89648882 C28.7609653,6.04287093 27.1123757,7.6306936 24.9457457,7.6306936 C22.7313699,7.6306936 21.1298439,6.04287093 21.1298439,3.84918191 C21.1298439,1.6561687 22.7313699,0.0686839431 24.9928092,0.0686839431 C27.2065029,0.0686839431 28.7609653,1.6561687 28.7609653,3.89648882 L28.7609653,3.89648882 Z" id="Fill-4"></path>
                <path d="M37.8069272,21.2128117 C37.8069272,24.479016 40.1154301,27.0004743 43.1302277,27.0004743 C46.0508983,27.0004743 48.3116555,24.479016 48.3116555,21.2128117 C48.3116555,17.7587315 46.0986439,15.1913178 43.1302277,15.1913178 C40.0690486,15.1913178 37.8069272,17.7587315 37.8069272,21.2128117 L37.8069272,21.2128117 Z M48.3116555,0.628899136 L55.4724821,0.628899136 L55.4724821,31.7605633 L48.3116555,31.7605633 L48.3116555,29.3337187 C47.3226382,30.6873722 46.7571931,31.2003143 45.7681757,31.6673011 C44.4964358,32.2735053 42.9897191,32.6009367 41.2466613,32.6009367 C34.6035341,32.6009367 30.1761468,28.0736654 30.1761468,21.2128117 C30.1761468,17.478607 31.3537595,14.5374688 33.7563896,12.3434418 C35.9230197,10.430891 38.6550948,9.31039304 41.3871699,9.31039304 C44.2137133,9.31039304 46.2394936,10.1507665 48.3116555,12.1106242 L48.3116555,0.628899136 Z" id="Fill-6"></path>
                <path d="M73.329122,18.6913872 C72.857804,16.451405 71.1614688,15.1913516 68.617648,15.1913516 C66.1682954,15.1913516 64.5197058,16.451405 64.0483879,18.6913872 L73.329122,18.6913872 Z M64.0961335,22.4728989 C64.6138329,24.8997434 66.4987636,26.346659 69.0889659,26.346659 C71.0206191,26.346659 72.6228272,25.5062856 73.3755035,23.9657698 L79.970885,25.6468547 C78.8873994,27.7935747 78.0869775,28.7735036 76.4380468,30.0335569 C74.2240121,31.7605971 71.7746595,32.6009705 68.9481162,32.6009705 C61.8353763,32.6009705 56.7003301,27.7003125 56.7003301,20.8391209 C56.7003301,13.9772536 61.5045671,9.31042683 68.5712665,9.31042683 C75.7784746,9.31042683 80.6304572,14.2114228 80.6304572,21.5852185 L80.6304572,22.4728989 L64.0961335,22.4728989 Z" id="Fill-7"></path>
                <path d="M88.971352,21.2128117 C88.971352,24.479016 91.2788318,27.0004743 94.2936295,27.0004743 C97.2153231,27.0004743 99.4760803,24.479016 99.4760803,21.2128117 C99.4760803,17.7587315 97.2620457,15.1913178 94.2936295,15.1913178 C91.2321092,15.1913178 88.971352,17.7587315 88.971352,21.2128117 L88.971352,21.2128117 Z M99.4760803,0.628899136 L106.635543,0.628899136 L106.635543,31.7605633 L99.4760803,31.7605633 L99.4760803,29.3337187 C98.487063,30.6873722 97.9216179,31.2003143 96.9326006,31.6673011 C95.6608607,32.2735053 94.1527798,32.6009367 92.409722,32.6009367 C85.767959,32.6009367 81.3395486,28.0736654 81.3395486,21.2128117 C81.3395486,17.478607 82.5168202,14.5374688 84.9197913,12.3434418 C87.0864214,10.430891 89.8184965,9.31039304 92.5519358,9.31039304 C95.3781382,9.31039304 97.4025543,10.1507665 99.4760803,12.1106242 L99.4760803,0.628899136 Z" id="Fill-8"></path>
                <path d="M12.3161988,16.5469987 L12.3161988,16.1269809 C12.3161988,15.1467142 11.2351006,14.3996029 9.38563815,14.3996029 C7.73193295,14.3996029 6.97448208,15.006483 6.97448208,15.8468565 C6.97448208,16.8974078 8.32500231,17.5921435 10.1625283,18.1057614 C16.287274,19.8328016 19.3835803,21.4953016 19.3835803,25.2764754 C19.3835803,29.6645292 14.9916613,32.6049916 9.66801965,32.6049916 C4.34403699,32.6049916 0.141054335,29.8510536 -0.000136416185,25.3227685 L6.7841815,25.3227685 C7.06690405,26.9099154 7.73193295,27.5167955 9.66801965,27.5167955 C11.2351006,27.5167955 12.0321121,26.8636222 12.0321121,25.9766176 C12.0321121,24.8841659 9.75259769,24.13942 6.83158613,23.2057843 C2.07270751,21.7115617 -0.000136416185,19.8611857 -0.000136416185,16.4537365 C-0.000136416185,12.1589449 4.39144162,9.31140676 9.66801965,9.31140676 C14.8504705,9.31140676 18.9122624,12.0190516 18.959326,16.5469987 L12.3161988,16.5469987 Z" id="Fill-9"></path>
            </g>
        </g>
    </g>
</svg>